<mxfile host="app.diagrams.net" modified="2021-07-20T03:47:12.096Z" agent="5.0 (Windows NT 10.0; Win64; x64) AppleWebKit/537.36 (KHTML, like Gecko) Chrome/91.0.4472.124 Safari/537.36" etag="GByz-51zgwmXDAgDC-Eo" version="14.9.0" type="github">
  <diagram id="EPAQFURXBqalhu8GI2II" name="Page-1">
    <mxGraphModel dx="1240" dy="697" grid="1" gridSize="10" guides="1" tooltips="1" connect="1" arrows="1" fold="1" page="1" pageScale="1" pageWidth="827" pageHeight="1169" math="0" shadow="0">
      <root>
        <mxCell id="0" />
        <mxCell id="1" parent="0" />
        <mxCell id="w8LLy8_TYm7YjtvFCaLv-1" value="" style="rounded=0;whiteSpace=wrap;html=1;" vertex="1" parent="1">
          <mxGeometry x="30" y="30" width="790" height="470" as="geometry" />
        </mxCell>
        <mxCell id="w8LLy8_TYm7YjtvFCaLv-2" value="" style="rounded=1;whiteSpace=wrap;html=1;fillColor=#dae8fc;strokeColor=none;" vertex="1" parent="1">
          <mxGeometry x="30" y="60" width="790" height="60" as="geometry" />
        </mxCell>
        <mxCell id="w8LLy8_TYm7YjtvFCaLv-3" value="" style="ellipse;whiteSpace=wrap;html=1;aspect=fixed;fillColor=#f8cecc;strokeColor=#b85450;" vertex="1" parent="1">
          <mxGeometry x="386" y="34" width="56" height="56" as="geometry" />
        </mxCell>
        <mxCell id="w8LLy8_TYm7YjtvFCaLv-4" value="" style="rounded=1;whiteSpace=wrap;html=1;fillColor=#d5e8d4;strokeColor=#82b366;" vertex="1" parent="1">
          <mxGeometry x="690" y="75" width="90" height="30" as="geometry" />
        </mxCell>
        <mxCell id="w8LLy8_TYm7YjtvFCaLv-5" value="Create Post" style="text;html=1;strokeColor=none;fillColor=none;align=center;verticalAlign=middle;whiteSpace=wrap;rounded=0;" vertex="1" parent="1">
          <mxGeometry x="695" y="80" width="80" height="20" as="geometry" />
        </mxCell>
        <mxCell id="w8LLy8_TYm7YjtvFCaLv-6" value="Name" style="text;html=1;strokeColor=none;fillColor=none;align=center;verticalAlign=middle;whiteSpace=wrap;rounded=0;" vertex="1" parent="1">
          <mxGeometry x="394" y="93" width="40" height="20" as="geometry" />
        </mxCell>
        <mxCell id="w8LLy8_TYm7YjtvFCaLv-7" value="Logged in as: Myilvaganan&amp;nbsp;" style="text;html=1;strokeColor=none;fillColor=none;align=center;verticalAlign=middle;whiteSpace=wrap;rounded=0;" vertex="1" parent="1">
          <mxGeometry x="30" y="80" width="190" height="20" as="geometry" />
        </mxCell>
        <mxCell id="w8LLy8_TYm7YjtvFCaLv-29" value="" style="group" vertex="1" connectable="0" parent="1">
          <mxGeometry x="85" y="160" width="675" height="110" as="geometry" />
        </mxCell>
        <mxCell id="w8LLy8_TYm7YjtvFCaLv-10" value="" style="group" vertex="1" connectable="0" parent="w8LLy8_TYm7YjtvFCaLv-29">
          <mxGeometry width="80" height="110" as="geometry" />
        </mxCell>
        <mxCell id="w8LLy8_TYm7YjtvFCaLv-8" value="" style="whiteSpace=wrap;html=1;aspect=fixed;fillColor=#d80073;strokeColor=#A50040;fontColor=#ffffff;" vertex="1" parent="w8LLy8_TYm7YjtvFCaLv-10">
          <mxGeometry width="80" height="80" as="geometry" />
        </mxCell>
        <mxCell id="w8LLy8_TYm7YjtvFCaLv-9" value="Post Name" style="text;html=1;strokeColor=none;fillColor=none;align=center;verticalAlign=middle;whiteSpace=wrap;rounded=0;" vertex="1" parent="w8LLy8_TYm7YjtvFCaLv-10">
          <mxGeometry y="90" width="80" height="20" as="geometry" />
        </mxCell>
        <mxCell id="w8LLy8_TYm7YjtvFCaLv-11" value="" style="group" vertex="1" connectable="0" parent="w8LLy8_TYm7YjtvFCaLv-29">
          <mxGeometry x="95" width="80" height="110" as="geometry" />
        </mxCell>
        <mxCell id="w8LLy8_TYm7YjtvFCaLv-12" value="" style="whiteSpace=wrap;html=1;aspect=fixed;fillColor=#d80073;strokeColor=#A50040;fontColor=#ffffff;" vertex="1" parent="w8LLy8_TYm7YjtvFCaLv-11">
          <mxGeometry width="80" height="80" as="geometry" />
        </mxCell>
        <mxCell id="w8LLy8_TYm7YjtvFCaLv-13" value="Post Name" style="text;html=1;strokeColor=none;fillColor=none;align=center;verticalAlign=middle;whiteSpace=wrap;rounded=0;" vertex="1" parent="w8LLy8_TYm7YjtvFCaLv-11">
          <mxGeometry y="90" width="80" height="20" as="geometry" />
        </mxCell>
        <mxCell id="w8LLy8_TYm7YjtvFCaLv-14" value="" style="group" vertex="1" connectable="0" parent="w8LLy8_TYm7YjtvFCaLv-29">
          <mxGeometry x="195" width="80" height="110" as="geometry" />
        </mxCell>
        <mxCell id="w8LLy8_TYm7YjtvFCaLv-15" value="" style="whiteSpace=wrap;html=1;aspect=fixed;fillColor=#d80073;strokeColor=#A50040;fontColor=#ffffff;" vertex="1" parent="w8LLy8_TYm7YjtvFCaLv-14">
          <mxGeometry width="80" height="80" as="geometry" />
        </mxCell>
        <mxCell id="w8LLy8_TYm7YjtvFCaLv-16" value="Post Name" style="text;html=1;strokeColor=none;fillColor=none;align=center;verticalAlign=middle;whiteSpace=wrap;rounded=0;" vertex="1" parent="w8LLy8_TYm7YjtvFCaLv-14">
          <mxGeometry y="90" width="80" height="20" as="geometry" />
        </mxCell>
        <mxCell id="w8LLy8_TYm7YjtvFCaLv-17" value="" style="group" vertex="1" connectable="0" parent="w8LLy8_TYm7YjtvFCaLv-29">
          <mxGeometry x="295" width="80" height="110" as="geometry" />
        </mxCell>
        <mxCell id="w8LLy8_TYm7YjtvFCaLv-18" value="" style="whiteSpace=wrap;html=1;aspect=fixed;fillColor=#d80073;strokeColor=#A50040;fontColor=#ffffff;" vertex="1" parent="w8LLy8_TYm7YjtvFCaLv-17">
          <mxGeometry width="80" height="80" as="geometry" />
        </mxCell>
        <mxCell id="w8LLy8_TYm7YjtvFCaLv-19" value="Post Name" style="text;html=1;strokeColor=none;fillColor=none;align=center;verticalAlign=middle;whiteSpace=wrap;rounded=0;" vertex="1" parent="w8LLy8_TYm7YjtvFCaLv-17">
          <mxGeometry y="90" width="80" height="20" as="geometry" />
        </mxCell>
        <mxCell id="w8LLy8_TYm7YjtvFCaLv-20" value="" style="group" vertex="1" connectable="0" parent="w8LLy8_TYm7YjtvFCaLv-29">
          <mxGeometry x="395" width="80" height="110" as="geometry" />
        </mxCell>
        <mxCell id="w8LLy8_TYm7YjtvFCaLv-21" value="" style="whiteSpace=wrap;html=1;aspect=fixed;fillColor=#d80073;strokeColor=#A50040;fontColor=#ffffff;" vertex="1" parent="w8LLy8_TYm7YjtvFCaLv-20">
          <mxGeometry width="80" height="80" as="geometry" />
        </mxCell>
        <mxCell id="w8LLy8_TYm7YjtvFCaLv-22" value="Post Name" style="text;html=1;strokeColor=none;fillColor=none;align=center;verticalAlign=middle;whiteSpace=wrap;rounded=0;" vertex="1" parent="w8LLy8_TYm7YjtvFCaLv-20">
          <mxGeometry y="90" width="80" height="20" as="geometry" />
        </mxCell>
        <mxCell id="w8LLy8_TYm7YjtvFCaLv-23" value="" style="group" vertex="1" connectable="0" parent="w8LLy8_TYm7YjtvFCaLv-29">
          <mxGeometry x="495" width="80" height="110" as="geometry" />
        </mxCell>
        <mxCell id="w8LLy8_TYm7YjtvFCaLv-24" value="" style="whiteSpace=wrap;html=1;aspect=fixed;fillColor=#d80073;strokeColor=#A50040;fontColor=#ffffff;" vertex="1" parent="w8LLy8_TYm7YjtvFCaLv-23">
          <mxGeometry width="80" height="80" as="geometry" />
        </mxCell>
        <mxCell id="w8LLy8_TYm7YjtvFCaLv-25" value="Post Name" style="text;html=1;strokeColor=none;fillColor=none;align=center;verticalAlign=middle;whiteSpace=wrap;rounded=0;" vertex="1" parent="w8LLy8_TYm7YjtvFCaLv-23">
          <mxGeometry y="90" width="80" height="20" as="geometry" />
        </mxCell>
        <mxCell id="w8LLy8_TYm7YjtvFCaLv-26" value="" style="group" vertex="1" connectable="0" parent="w8LLy8_TYm7YjtvFCaLv-29">
          <mxGeometry x="595" width="80" height="110" as="geometry" />
        </mxCell>
        <mxCell id="w8LLy8_TYm7YjtvFCaLv-27" value="" style="whiteSpace=wrap;html=1;aspect=fixed;fillColor=#d80073;strokeColor=#A50040;fontColor=#ffffff;" vertex="1" parent="w8LLy8_TYm7YjtvFCaLv-26">
          <mxGeometry width="80" height="80" as="geometry" />
        </mxCell>
        <mxCell id="w8LLy8_TYm7YjtvFCaLv-28" value="Post Name" style="text;html=1;strokeColor=none;fillColor=none;align=center;verticalAlign=middle;whiteSpace=wrap;rounded=0;" vertex="1" parent="w8LLy8_TYm7YjtvFCaLv-26">
          <mxGeometry y="90" width="80" height="20" as="geometry" />
        </mxCell>
        <mxCell id="w8LLy8_TYm7YjtvFCaLv-33" value="" style="group" vertex="1" connectable="0" parent="1">
          <mxGeometry x="90" y="280" width="675" height="110" as="geometry" />
        </mxCell>
        <mxCell id="w8LLy8_TYm7YjtvFCaLv-34" value="" style="group" vertex="1" connectable="0" parent="w8LLy8_TYm7YjtvFCaLv-33">
          <mxGeometry width="80" height="110" as="geometry" />
        </mxCell>
        <mxCell id="w8LLy8_TYm7YjtvFCaLv-35" value="" style="whiteSpace=wrap;html=1;aspect=fixed;fillColor=#d80073;strokeColor=#A50040;fontColor=#ffffff;" vertex="1" parent="w8LLy8_TYm7YjtvFCaLv-34">
          <mxGeometry width="80" height="80" as="geometry" />
        </mxCell>
        <mxCell id="w8LLy8_TYm7YjtvFCaLv-36" value="Post Name" style="text;html=1;strokeColor=none;fillColor=none;align=center;verticalAlign=middle;whiteSpace=wrap;rounded=0;" vertex="1" parent="w8LLy8_TYm7YjtvFCaLv-34">
          <mxGeometry y="90" width="80" height="20" as="geometry" />
        </mxCell>
        <mxCell id="w8LLy8_TYm7YjtvFCaLv-37" value="" style="group" vertex="1" connectable="0" parent="w8LLy8_TYm7YjtvFCaLv-33">
          <mxGeometry x="95" width="80" height="110" as="geometry" />
        </mxCell>
        <mxCell id="w8LLy8_TYm7YjtvFCaLv-38" value="" style="whiteSpace=wrap;html=1;aspect=fixed;fillColor=#d80073;strokeColor=#A50040;fontColor=#ffffff;" vertex="1" parent="w8LLy8_TYm7YjtvFCaLv-37">
          <mxGeometry width="80" height="80" as="geometry" />
        </mxCell>
        <mxCell id="w8LLy8_TYm7YjtvFCaLv-39" value="Post Name" style="text;html=1;strokeColor=none;fillColor=none;align=center;verticalAlign=middle;whiteSpace=wrap;rounded=0;" vertex="1" parent="w8LLy8_TYm7YjtvFCaLv-37">
          <mxGeometry y="90" width="80" height="20" as="geometry" />
        </mxCell>
        <mxCell id="w8LLy8_TYm7YjtvFCaLv-40" value="" style="group" vertex="1" connectable="0" parent="w8LLy8_TYm7YjtvFCaLv-33">
          <mxGeometry x="195" width="80" height="110" as="geometry" />
        </mxCell>
        <mxCell id="w8LLy8_TYm7YjtvFCaLv-41" value="" style="whiteSpace=wrap;html=1;aspect=fixed;fillColor=#d80073;strokeColor=#A50040;fontColor=#ffffff;" vertex="1" parent="w8LLy8_TYm7YjtvFCaLv-40">
          <mxGeometry width="80" height="80" as="geometry" />
        </mxCell>
        <mxCell id="w8LLy8_TYm7YjtvFCaLv-42" value="Post Name" style="text;html=1;strokeColor=none;fillColor=none;align=center;verticalAlign=middle;whiteSpace=wrap;rounded=0;" vertex="1" parent="w8LLy8_TYm7YjtvFCaLv-40">
          <mxGeometry y="90" width="80" height="20" as="geometry" />
        </mxCell>
        <mxCell id="w8LLy8_TYm7YjtvFCaLv-43" value="" style="group" vertex="1" connectable="0" parent="w8LLy8_TYm7YjtvFCaLv-33">
          <mxGeometry x="295" width="80" height="110" as="geometry" />
        </mxCell>
        <mxCell id="w8LLy8_TYm7YjtvFCaLv-44" value="" style="whiteSpace=wrap;html=1;aspect=fixed;fillColor=#d80073;strokeColor=#A50040;fontColor=#ffffff;" vertex="1" parent="w8LLy8_TYm7YjtvFCaLv-43">
          <mxGeometry width="80" height="80" as="geometry" />
        </mxCell>
        <mxCell id="w8LLy8_TYm7YjtvFCaLv-45" value="Post Name" style="text;html=1;strokeColor=none;fillColor=none;align=center;verticalAlign=middle;whiteSpace=wrap;rounded=0;" vertex="1" parent="w8LLy8_TYm7YjtvFCaLv-43">
          <mxGeometry y="90" width="80" height="20" as="geometry" />
        </mxCell>
        <mxCell id="w8LLy8_TYm7YjtvFCaLv-46" value="" style="group" vertex="1" connectable="0" parent="w8LLy8_TYm7YjtvFCaLv-33">
          <mxGeometry x="395" width="80" height="110" as="geometry" />
        </mxCell>
        <mxCell id="w8LLy8_TYm7YjtvFCaLv-47" value="" style="whiteSpace=wrap;html=1;aspect=fixed;fillColor=#d80073;strokeColor=#A50040;fontColor=#ffffff;" vertex="1" parent="w8LLy8_TYm7YjtvFCaLv-46">
          <mxGeometry width="80" height="80" as="geometry" />
        </mxCell>
        <mxCell id="w8LLy8_TYm7YjtvFCaLv-48" value="Post Name" style="text;html=1;strokeColor=none;fillColor=none;align=center;verticalAlign=middle;whiteSpace=wrap;rounded=0;" vertex="1" parent="w8LLy8_TYm7YjtvFCaLv-46">
          <mxGeometry y="90" width="80" height="20" as="geometry" />
        </mxCell>
        <mxCell id="w8LLy8_TYm7YjtvFCaLv-49" value="" style="group" vertex="1" connectable="0" parent="w8LLy8_TYm7YjtvFCaLv-33">
          <mxGeometry x="495" width="80" height="110" as="geometry" />
        </mxCell>
        <mxCell id="w8LLy8_TYm7YjtvFCaLv-50" value="" style="whiteSpace=wrap;html=1;aspect=fixed;fillColor=#d80073;strokeColor=#A50040;fontColor=#ffffff;" vertex="1" parent="w8LLy8_TYm7YjtvFCaLv-49">
          <mxGeometry width="80" height="80" as="geometry" />
        </mxCell>
        <mxCell id="w8LLy8_TYm7YjtvFCaLv-51" value="Post Name" style="text;html=1;strokeColor=none;fillColor=none;align=center;verticalAlign=middle;whiteSpace=wrap;rounded=0;" vertex="1" parent="w8LLy8_TYm7YjtvFCaLv-49">
          <mxGeometry y="90" width="80" height="20" as="geometry" />
        </mxCell>
        <mxCell id="w8LLy8_TYm7YjtvFCaLv-52" value="" style="group" vertex="1" connectable="0" parent="w8LLy8_TYm7YjtvFCaLv-33">
          <mxGeometry x="595" width="80" height="110" as="geometry" />
        </mxCell>
        <mxCell id="w8LLy8_TYm7YjtvFCaLv-53" value="" style="whiteSpace=wrap;html=1;aspect=fixed;fillColor=#d80073;strokeColor=#A50040;fontColor=#ffffff;" vertex="1" parent="w8LLy8_TYm7YjtvFCaLv-52">
          <mxGeometry width="80" height="80" as="geometry" />
        </mxCell>
        <mxCell id="w8LLy8_TYm7YjtvFCaLv-54" value="Post Name" style="text;html=1;strokeColor=none;fillColor=none;align=center;verticalAlign=middle;whiteSpace=wrap;rounded=0;" vertex="1" parent="w8LLy8_TYm7YjtvFCaLv-52">
          <mxGeometry y="90" width="80" height="20" as="geometry" />
        </mxCell>
        <mxCell id="w8LLy8_TYm7YjtvFCaLv-55" value="" style="rounded=0;whiteSpace=wrap;html=1;fillColor=#ffffff;" vertex="1" parent="1">
          <mxGeometry x="535" y="420" width="235" height="30" as="geometry" />
        </mxCell>
        <mxCell id="w8LLy8_TYm7YjtvFCaLv-56" value="" style="rounded=1;whiteSpace=wrap;html=1;fillColor=#ffffff;" vertex="1" parent="1">
          <mxGeometry x="535" y="420" width="60" height="30" as="geometry" />
        </mxCell>
        <mxCell id="w8LLy8_TYm7YjtvFCaLv-57" value="" style="rounded=1;whiteSpace=wrap;html=1;fillColor=#ffffff;" vertex="1" parent="1">
          <mxGeometry x="595" y="420" width="60" height="30" as="geometry" />
        </mxCell>
        <mxCell id="w8LLy8_TYm7YjtvFCaLv-58" value="" style="rounded=1;whiteSpace=wrap;html=1;fillColor=#ffffff;" vertex="1" parent="1">
          <mxGeometry x="656" y="420" width="60" height="30" as="geometry" />
        </mxCell>
        <mxCell id="w8LLy8_TYm7YjtvFCaLv-59" value="" style="rounded=1;whiteSpace=wrap;html=1;fillColor=#ffffff;" vertex="1" parent="1">
          <mxGeometry x="716" y="420" width="60" height="30" as="geometry" />
        </mxCell>
        <mxCell id="w8LLy8_TYm7YjtvFCaLv-60" value="Prev" style="text;html=1;strokeColor=none;fillColor=none;align=center;verticalAlign=middle;whiteSpace=wrap;rounded=0;" vertex="1" parent="1">
          <mxGeometry x="544" y="424" width="40" height="20" as="geometry" />
        </mxCell>
        <mxCell id="w8LLy8_TYm7YjtvFCaLv-61" value="1" style="text;html=1;strokeColor=none;fillColor=none;align=center;verticalAlign=middle;whiteSpace=wrap;rounded=0;" vertex="1" parent="1">
          <mxGeometry x="605" y="424" width="40" height="20" as="geometry" />
        </mxCell>
        <mxCell id="w8LLy8_TYm7YjtvFCaLv-62" value="2" style="text;html=1;strokeColor=none;fillColor=none;align=center;verticalAlign=middle;whiteSpace=wrap;rounded=0;" vertex="1" parent="1">
          <mxGeometry x="666" y="424" width="40" height="20" as="geometry" />
        </mxCell>
        <mxCell id="w8LLy8_TYm7YjtvFCaLv-63" value="Next" style="text;html=1;strokeColor=none;fillColor=none;align=center;verticalAlign=middle;whiteSpace=wrap;rounded=0;" vertex="1" parent="1">
          <mxGeometry x="725" y="424" width="40" height="20" as="geometry" />
        </mxCell>
        <mxCell id="w8LLy8_TYm7YjtvFCaLv-64" value="&#xa;&#xa;&lt;span style=&quot;color: rgb(0, 0, 0); font-family: helvetica; font-size: 12px; font-style: normal; font-weight: 400; letter-spacing: normal; text-align: center; text-indent: 0px; text-transform: none; word-spacing: 0px; background-color: rgb(248, 249, 250); display: inline; float: none;&quot;&gt;+&lt;/span&gt;&#xa;&#xa;" style="rounded=0;whiteSpace=wrap;html=1;" vertex="1" parent="1">
          <mxGeometry x="27.5" y="530" width="790" height="470" as="geometry" />
        </mxCell>
        <mxCell id="w8LLy8_TYm7YjtvFCaLv-65" value="" style="whiteSpace=wrap;html=1;aspect=fixed;fillColor=#dae8fc;strokeColor=#6c8ebf;" vertex="1" parent="1">
          <mxGeometry x="347.5" y="530" width="470" height="470" as="geometry" />
        </mxCell>
        <mxCell id="w8LLy8_TYm7YjtvFCaLv-66" value="" style="group" vertex="1" connectable="0" parent="1">
          <mxGeometry x="396" y="571" width="94" height="110" as="geometry" />
        </mxCell>
        <mxCell id="w8LLy8_TYm7YjtvFCaLv-67" value="" style="whiteSpace=wrap;html=1;aspect=fixed;fillColor=#d80073;strokeColor=#A50040;fontColor=#ffffff;" vertex="1" parent="w8LLy8_TYm7YjtvFCaLv-66">
          <mxGeometry width="80" height="80" as="geometry" />
        </mxCell>
        <mxCell id="w8LLy8_TYm7YjtvFCaLv-68" value="Post Name" style="text;html=1;strokeColor=none;fillColor=none;align=center;verticalAlign=middle;whiteSpace=wrap;rounded=0;" vertex="1" parent="w8LLy8_TYm7YjtvFCaLv-66">
          <mxGeometry y="90" width="80" height="20" as="geometry" />
        </mxCell>
        <mxCell id="w8LLy8_TYm7YjtvFCaLv-69" value="" style="group" vertex="1" connectable="0" parent="1">
          <mxGeometry x="490" y="570" width="80" height="110" as="geometry" />
        </mxCell>
        <mxCell id="w8LLy8_TYm7YjtvFCaLv-70" value="" style="whiteSpace=wrap;html=1;aspect=fixed;fillColor=#d80073;strokeColor=#A50040;fontColor=#ffffff;" vertex="1" parent="w8LLy8_TYm7YjtvFCaLv-69">
          <mxGeometry width="80" height="80" as="geometry" />
        </mxCell>
        <mxCell id="w8LLy8_TYm7YjtvFCaLv-71" value="Post Name" style="text;html=1;strokeColor=none;fillColor=none;align=center;verticalAlign=middle;whiteSpace=wrap;rounded=0;" vertex="1" parent="w8LLy8_TYm7YjtvFCaLv-69">
          <mxGeometry y="90" width="80" height="20" as="geometry" />
        </mxCell>
        <mxCell id="w8LLy8_TYm7YjtvFCaLv-72" value="" style="group" vertex="1" connectable="0" parent="1">
          <mxGeometry x="590" y="570" width="90" height="110" as="geometry" />
        </mxCell>
        <mxCell id="w8LLy8_TYm7YjtvFCaLv-73" value="" style="whiteSpace=wrap;html=1;aspect=fixed;fillColor=#d80073;strokeColor=#A50040;fontColor=#ffffff;" vertex="1" parent="w8LLy8_TYm7YjtvFCaLv-72">
          <mxGeometry width="80" height="80" as="geometry" />
        </mxCell>
        <mxCell id="w8LLy8_TYm7YjtvFCaLv-74" value="Post Name" style="text;html=1;strokeColor=none;fillColor=none;align=center;verticalAlign=middle;whiteSpace=wrap;rounded=0;" vertex="1" parent="w8LLy8_TYm7YjtvFCaLv-72">
          <mxGeometry y="90" width="80" height="20" as="geometry" />
        </mxCell>
        <mxCell id="w8LLy8_TYm7YjtvFCaLv-139" value="x" style="whiteSpace=wrap;html=1;aspect=fixed;fillColor=#ffffff;" vertex="1" parent="w8LLy8_TYm7YjtvFCaLv-72">
          <mxGeometry x="70" y="-10" width="20" height="20" as="geometry" />
        </mxCell>
        <mxCell id="w8LLy8_TYm7YjtvFCaLv-75" value="" style="group" vertex="1" connectable="0" parent="1">
          <mxGeometry x="690" y="570" width="80" height="110" as="geometry" />
        </mxCell>
        <mxCell id="w8LLy8_TYm7YjtvFCaLv-76" value="" style="whiteSpace=wrap;html=1;aspect=fixed;fillColor=#d80073;strokeColor=#A50040;fontColor=#ffffff;" vertex="1" parent="w8LLy8_TYm7YjtvFCaLv-75">
          <mxGeometry width="80" height="80" as="geometry" />
        </mxCell>
        <mxCell id="w8LLy8_TYm7YjtvFCaLv-77" value="Post Name" style="text;html=1;strokeColor=none;fillColor=none;align=center;verticalAlign=middle;whiteSpace=wrap;rounded=0;" vertex="1" parent="w8LLy8_TYm7YjtvFCaLv-75">
          <mxGeometry y="90" width="80" height="20" as="geometry" />
        </mxCell>
        <mxCell id="w8LLy8_TYm7YjtvFCaLv-78" value="" style="group" vertex="1" connectable="0" parent="1">
          <mxGeometry x="694" y="690" width="86" height="110" as="geometry" />
        </mxCell>
        <mxCell id="w8LLy8_TYm7YjtvFCaLv-79" value="" style="whiteSpace=wrap;html=1;aspect=fixed;fillColor=#d80073;strokeColor=#A50040;fontColor=#ffffff;" vertex="1" parent="w8LLy8_TYm7YjtvFCaLv-78">
          <mxGeometry width="80" height="80" as="geometry" />
        </mxCell>
        <mxCell id="w8LLy8_TYm7YjtvFCaLv-80" value="Post Name" style="text;html=1;strokeColor=none;fillColor=none;align=center;verticalAlign=middle;whiteSpace=wrap;rounded=0;" vertex="1" parent="w8LLy8_TYm7YjtvFCaLv-78">
          <mxGeometry y="90" width="80" height="20" as="geometry" />
        </mxCell>
        <mxCell id="w8LLy8_TYm7YjtvFCaLv-143" value="x" style="whiteSpace=wrap;html=1;aspect=fixed;fillColor=#ffffff;" vertex="1" parent="w8LLy8_TYm7YjtvFCaLv-78">
          <mxGeometry x="66" y="-10" width="20" height="20" as="geometry" />
        </mxCell>
        <mxCell id="w8LLy8_TYm7YjtvFCaLv-81" value="" style="group" vertex="1" connectable="0" parent="1">
          <mxGeometry x="594" y="690" width="80" height="110" as="geometry" />
        </mxCell>
        <mxCell id="w8LLy8_TYm7YjtvFCaLv-82" value="" style="whiteSpace=wrap;html=1;aspect=fixed;fillColor=#d80073;strokeColor=#A50040;fontColor=#ffffff;" vertex="1" parent="w8LLy8_TYm7YjtvFCaLv-81">
          <mxGeometry width="80" height="80" as="geometry" />
        </mxCell>
        <mxCell id="w8LLy8_TYm7YjtvFCaLv-83" value="Post Name" style="text;html=1;strokeColor=none;fillColor=none;align=center;verticalAlign=middle;whiteSpace=wrap;rounded=0;" vertex="1" parent="w8LLy8_TYm7YjtvFCaLv-81">
          <mxGeometry y="90" width="80" height="20" as="geometry" />
        </mxCell>
        <mxCell id="w8LLy8_TYm7YjtvFCaLv-144" value="x" style="whiteSpace=wrap;html=1;aspect=fixed;fillColor=#ffffff;" vertex="1" parent="w8LLy8_TYm7YjtvFCaLv-81">
          <mxGeometry x="60" y="-10" width="20" height="20" as="geometry" />
        </mxCell>
        <mxCell id="w8LLy8_TYm7YjtvFCaLv-84" value="" style="group" vertex="1" connectable="0" parent="1">
          <mxGeometry x="494" y="690" width="80" height="110" as="geometry" />
        </mxCell>
        <mxCell id="w8LLy8_TYm7YjtvFCaLv-85" value="" style="whiteSpace=wrap;html=1;aspect=fixed;fillColor=#d80073;strokeColor=#A50040;fontColor=#ffffff;" vertex="1" parent="w8LLy8_TYm7YjtvFCaLv-84">
          <mxGeometry width="80" height="80" as="geometry" />
        </mxCell>
        <mxCell id="w8LLy8_TYm7YjtvFCaLv-86" value="Post Name" style="text;html=1;strokeColor=none;fillColor=none;align=center;verticalAlign=middle;whiteSpace=wrap;rounded=0;" vertex="1" parent="w8LLy8_TYm7YjtvFCaLv-84">
          <mxGeometry y="90" width="80" height="20" as="geometry" />
        </mxCell>
        <mxCell id="w8LLy8_TYm7YjtvFCaLv-87" value="" style="group" vertex="1" connectable="0" parent="1">
          <mxGeometry x="400" y="691" width="80" height="110" as="geometry" />
        </mxCell>
        <mxCell id="w8LLy8_TYm7YjtvFCaLv-88" value="" style="whiteSpace=wrap;html=1;aspect=fixed;fillColor=#d80073;strokeColor=#A50040;fontColor=#ffffff;" vertex="1" parent="w8LLy8_TYm7YjtvFCaLv-87">
          <mxGeometry width="80" height="80" as="geometry" />
        </mxCell>
        <mxCell id="w8LLy8_TYm7YjtvFCaLv-89" value="Post Name" style="text;html=1;strokeColor=none;fillColor=none;align=center;verticalAlign=middle;whiteSpace=wrap;rounded=0;" vertex="1" parent="w8LLy8_TYm7YjtvFCaLv-87">
          <mxGeometry y="90" width="80" height="20" as="geometry" />
        </mxCell>
        <mxCell id="w8LLy8_TYm7YjtvFCaLv-146" value="x" style="whiteSpace=wrap;html=1;aspect=fixed;fillColor=#ffffff;" vertex="1" parent="w8LLy8_TYm7YjtvFCaLv-87">
          <mxGeometry x="60" y="-11" width="20" height="20" as="geometry" />
        </mxCell>
        <mxCell id="w8LLy8_TYm7YjtvFCaLv-90" value="" style="group" vertex="1" connectable="0" parent="1">
          <mxGeometry x="704" y="820" width="86" height="110" as="geometry" />
        </mxCell>
        <mxCell id="w8LLy8_TYm7YjtvFCaLv-91" value="" style="whiteSpace=wrap;html=1;aspect=fixed;fillColor=#d80073;strokeColor=#A50040;fontColor=#ffffff;" vertex="1" parent="w8LLy8_TYm7YjtvFCaLv-90">
          <mxGeometry width="80" height="80" as="geometry" />
        </mxCell>
        <mxCell id="w8LLy8_TYm7YjtvFCaLv-92" value="Post Name" style="text;html=1;strokeColor=none;fillColor=none;align=center;verticalAlign=middle;whiteSpace=wrap;rounded=0;" vertex="1" parent="w8LLy8_TYm7YjtvFCaLv-90">
          <mxGeometry y="90" width="80" height="20" as="geometry" />
        </mxCell>
        <mxCell id="w8LLy8_TYm7YjtvFCaLv-152" value="x" style="whiteSpace=wrap;html=1;aspect=fixed;fillColor=#ffffff;" vertex="1" parent="w8LLy8_TYm7YjtvFCaLv-90">
          <mxGeometry x="66" y="-10" width="20" height="20" as="geometry" />
        </mxCell>
        <mxCell id="w8LLy8_TYm7YjtvFCaLv-93" value="" style="group" vertex="1" connectable="0" parent="1">
          <mxGeometry x="604" y="820" width="86" height="110" as="geometry" />
        </mxCell>
        <mxCell id="w8LLy8_TYm7YjtvFCaLv-94" value="" style="whiteSpace=wrap;html=1;aspect=fixed;fillColor=#d80073;strokeColor=#A50040;fontColor=#ffffff;" vertex="1" parent="w8LLy8_TYm7YjtvFCaLv-93">
          <mxGeometry width="80" height="80" as="geometry" />
        </mxCell>
        <mxCell id="w8LLy8_TYm7YjtvFCaLv-95" value="Post Name" style="text;html=1;strokeColor=none;fillColor=none;align=center;verticalAlign=middle;whiteSpace=wrap;rounded=0;" vertex="1" parent="w8LLy8_TYm7YjtvFCaLv-93">
          <mxGeometry y="90" width="80" height="20" as="geometry" />
        </mxCell>
        <mxCell id="w8LLy8_TYm7YjtvFCaLv-150" value="x" style="whiteSpace=wrap;html=1;aspect=fixed;fillColor=#ffffff;" vertex="1" parent="w8LLy8_TYm7YjtvFCaLv-93">
          <mxGeometry x="66" y="-10" width="20" height="20" as="geometry" />
        </mxCell>
        <mxCell id="w8LLy8_TYm7YjtvFCaLv-96" value="" style="group" vertex="1" connectable="0" parent="1">
          <mxGeometry x="504" y="820" width="86" height="110" as="geometry" />
        </mxCell>
        <mxCell id="w8LLy8_TYm7YjtvFCaLv-97" value="" style="whiteSpace=wrap;html=1;aspect=fixed;fillColor=#d80073;strokeColor=#A50040;fontColor=#ffffff;" vertex="1" parent="w8LLy8_TYm7YjtvFCaLv-96">
          <mxGeometry width="80" height="80" as="geometry" />
        </mxCell>
        <mxCell id="w8LLy8_TYm7YjtvFCaLv-98" value="Post Name" style="text;html=1;strokeColor=none;fillColor=none;align=center;verticalAlign=middle;whiteSpace=wrap;rounded=0;" vertex="1" parent="w8LLy8_TYm7YjtvFCaLv-96">
          <mxGeometry y="90" width="80" height="20" as="geometry" />
        </mxCell>
        <mxCell id="w8LLy8_TYm7YjtvFCaLv-149" value="x" style="whiteSpace=wrap;html=1;aspect=fixed;fillColor=#ffffff;" vertex="1" parent="w8LLy8_TYm7YjtvFCaLv-96">
          <mxGeometry x="66" y="-10" width="20" height="20" as="geometry" />
        </mxCell>
        <mxCell id="w8LLy8_TYm7YjtvFCaLv-99" value="" style="group" vertex="1" connectable="0" parent="1">
          <mxGeometry x="410" y="821" width="80" height="110" as="geometry" />
        </mxCell>
        <mxCell id="w8LLy8_TYm7YjtvFCaLv-100" value="" style="whiteSpace=wrap;html=1;aspect=fixed;fillColor=#d80073;strokeColor=#A50040;fontColor=#ffffff;" vertex="1" parent="w8LLy8_TYm7YjtvFCaLv-99">
          <mxGeometry width="80" height="80" as="geometry" />
        </mxCell>
        <mxCell id="w8LLy8_TYm7YjtvFCaLv-101" value="Post Name" style="text;html=1;strokeColor=none;fillColor=none;align=center;verticalAlign=middle;whiteSpace=wrap;rounded=0;" vertex="1" parent="w8LLy8_TYm7YjtvFCaLv-99">
          <mxGeometry y="90" width="80" height="20" as="geometry" />
        </mxCell>
        <mxCell id="w8LLy8_TYm7YjtvFCaLv-108" value="Prev" style="text;html=1;align=center;verticalAlign=middle;whiteSpace=wrap;rounded=0;fillColor=#e51400;strokeColor=#B20000;fontColor=#ffffff;" vertex="1" parent="1">
          <mxGeometry x="559" y="960" width="40" height="20" as="geometry" />
        </mxCell>
        <mxCell id="w8LLy8_TYm7YjtvFCaLv-109" value="1" style="text;html=1;strokeColor=#B20000;fillColor=#e51400;align=center;verticalAlign=middle;whiteSpace=wrap;rounded=0;fontColor=#ffffff;" vertex="1" parent="1">
          <mxGeometry x="620" y="960" width="40" height="20" as="geometry" />
        </mxCell>
        <mxCell id="w8LLy8_TYm7YjtvFCaLv-110" value="2" style="text;html=1;strokeColor=#B20000;fillColor=#e51400;align=center;verticalAlign=middle;whiteSpace=wrap;rounded=0;fontColor=#ffffff;" vertex="1" parent="1">
          <mxGeometry x="681" y="960" width="40" height="20" as="geometry" />
        </mxCell>
        <mxCell id="w8LLy8_TYm7YjtvFCaLv-111" value="Next" style="text;html=1;strokeColor=#B20000;fillColor=#e51400;align=center;verticalAlign=middle;whiteSpace=wrap;rounded=0;fontColor=#ffffff;" vertex="1" parent="1">
          <mxGeometry x="740" y="960" width="40" height="20" as="geometry" />
        </mxCell>
        <mxCell id="w8LLy8_TYm7YjtvFCaLv-112" value="" style="ellipse;whiteSpace=wrap;html=1;aspect=fixed;fillColor=#ffffff;" vertex="1" parent="1">
          <mxGeometry x="150" y="545" width="80" height="80" as="geometry" />
        </mxCell>
        <mxCell id="w8LLy8_TYm7YjtvFCaLv-113" value="TODO LIST" style="shape=process;whiteSpace=wrap;html=1;backgroundOutline=1;fillColor=#ffffff;" vertex="1" parent="1">
          <mxGeometry x="27" y="678" width="320" height="40" as="geometry" />
        </mxCell>
        <mxCell id="w8LLy8_TYm7YjtvFCaLv-118" value="" style="group" vertex="1" connectable="0" parent="1">
          <mxGeometry x="27" y="766" width="320" height="44" as="geometry" />
        </mxCell>
        <mxCell id="w8LLy8_TYm7YjtvFCaLv-114" value="" style="rounded=0;whiteSpace=wrap;html=1;fillColor=#e51400;strokeColor=#B20000;fontColor=#ffffff;" vertex="1" parent="w8LLy8_TYm7YjtvFCaLv-118">
          <mxGeometry width="320" height="44" as="geometry" />
        </mxCell>
        <mxCell id="w8LLy8_TYm7YjtvFCaLv-115" value="+" style="rounded=1;whiteSpace=wrap;html=1;fillColor=#ffffff;" vertex="1" parent="w8LLy8_TYm7YjtvFCaLv-118">
          <mxGeometry x="213" y="8" width="40" height="30" as="geometry" />
        </mxCell>
        <mxCell id="w8LLy8_TYm7YjtvFCaLv-116" value="x" style="rounded=1;whiteSpace=wrap;html=1;fillColor=#ffffff;" vertex="1" parent="w8LLy8_TYm7YjtvFCaLv-118">
          <mxGeometry x="263" y="7" width="40" height="30" as="geometry" />
        </mxCell>
        <mxCell id="w8LLy8_TYm7YjtvFCaLv-117" value="Hello........" style="text;html=1;strokeColor=none;fillColor=none;align=center;verticalAlign=middle;whiteSpace=wrap;rounded=0;fontStyle=1" vertex="1" parent="w8LLy8_TYm7YjtvFCaLv-118">
          <mxGeometry x="23" y="14" width="80" height="20" as="geometry" />
        </mxCell>
        <mxCell id="w8LLy8_TYm7YjtvFCaLv-119" value="" style="group;fontStyle=1" vertex="1" connectable="0" parent="1">
          <mxGeometry x="28" y="810" width="320" height="44" as="geometry" />
        </mxCell>
        <mxCell id="w8LLy8_TYm7YjtvFCaLv-120" value="" style="rounded=0;whiteSpace=wrap;html=1;fillColor=#e51400;strokeColor=#B20000;fontColor=#ffffff;" vertex="1" parent="w8LLy8_TYm7YjtvFCaLv-119">
          <mxGeometry width="320" height="44" as="geometry" />
        </mxCell>
        <mxCell id="w8LLy8_TYm7YjtvFCaLv-121" value="+" style="rounded=1;whiteSpace=wrap;html=1;fillColor=#ffffff;" vertex="1" parent="w8LLy8_TYm7YjtvFCaLv-119">
          <mxGeometry x="213" y="8" width="40" height="30" as="geometry" />
        </mxCell>
        <mxCell id="w8LLy8_TYm7YjtvFCaLv-122" value="x" style="rounded=1;whiteSpace=wrap;html=1;fillColor=#ffffff;" vertex="1" parent="w8LLy8_TYm7YjtvFCaLv-119">
          <mxGeometry x="263" y="7" width="40" height="30" as="geometry" />
        </mxCell>
        <mxCell id="w8LLy8_TYm7YjtvFCaLv-123" value="Hello........" style="text;html=1;strokeColor=none;fillColor=none;align=center;verticalAlign=middle;whiteSpace=wrap;rounded=0;fontStyle=1" vertex="1" parent="w8LLy8_TYm7YjtvFCaLv-119">
          <mxGeometry x="23" y="14" width="80" height="20" as="geometry" />
        </mxCell>
        <mxCell id="w8LLy8_TYm7YjtvFCaLv-124" value="" style="group;fontStyle=1" vertex="1" connectable="0" parent="1">
          <mxGeometry x="30" y="720" width="320" height="44" as="geometry" />
        </mxCell>
        <mxCell id="w8LLy8_TYm7YjtvFCaLv-125" value="" style="rounded=0;whiteSpace=wrap;html=1;fillColor=#e51400;strokeColor=#B20000;fontColor=#ffffff;" vertex="1" parent="w8LLy8_TYm7YjtvFCaLv-124">
          <mxGeometry width="320" height="44" as="geometry" />
        </mxCell>
        <mxCell id="w8LLy8_TYm7YjtvFCaLv-126" value="+" style="rounded=1;whiteSpace=wrap;html=1;fillColor=#ffffff;" vertex="1" parent="w8LLy8_TYm7YjtvFCaLv-124">
          <mxGeometry x="213" y="8" width="40" height="30" as="geometry" />
        </mxCell>
        <mxCell id="w8LLy8_TYm7YjtvFCaLv-127" value="x" style="rounded=1;whiteSpace=wrap;html=1;fillColor=#ffffff;" vertex="1" parent="w8LLy8_TYm7YjtvFCaLv-124">
          <mxGeometry x="263" y="7" width="40" height="30" as="geometry" />
        </mxCell>
        <mxCell id="w8LLy8_TYm7YjtvFCaLv-128" value="Hello........" style="text;html=1;strokeColor=none;fillColor=none;align=center;verticalAlign=middle;whiteSpace=wrap;rounded=0;fontStyle=1" vertex="1" parent="w8LLy8_TYm7YjtvFCaLv-124">
          <mxGeometry x="23" y="14" width="80" height="20" as="geometry" />
        </mxCell>
        <mxCell id="w8LLy8_TYm7YjtvFCaLv-129" value="Write Something.........." style="rounded=0;whiteSpace=wrap;html=1;fillColor=#ffffff;" vertex="1" parent="1">
          <mxGeometry x="30" y="960" width="270" height="40" as="geometry" />
        </mxCell>
        <mxCell id="w8LLy8_TYm7YjtvFCaLv-130" value="+" style="rounded=1;whiteSpace=wrap;html=1;fillColor=#e3c800;strokeColor=#B09500;fontColor=#000000;" vertex="1" parent="1">
          <mxGeometry x="304" y="965" width="40" height="30" as="geometry" />
        </mxCell>
        <mxCell id="w8LLy8_TYm7YjtvFCaLv-131" value="Prev" style="text;html=1;align=center;verticalAlign=middle;whiteSpace=wrap;rounded=0;fillColor=#6d8764;strokeColor=#3A5431;fontColor=#ffffff;" vertex="1" parent="1">
          <mxGeometry x="180" y="920" width="40" height="20" as="geometry" />
        </mxCell>
        <mxCell id="w8LLy8_TYm7YjtvFCaLv-132" value="1" style="text;html=1;strokeColor=#3A5431;fillColor=#6d8764;align=center;verticalAlign=middle;whiteSpace=wrap;rounded=0;fontColor=#ffffff;" vertex="1" parent="1">
          <mxGeometry x="220" y="920" width="40" height="20" as="geometry" />
        </mxCell>
        <mxCell id="w8LLy8_TYm7YjtvFCaLv-133" value="2" style="text;html=1;strokeColor=#3A5431;fillColor=#6d8764;align=center;verticalAlign=middle;whiteSpace=wrap;rounded=0;fontColor=#ffffff;" vertex="1" parent="1">
          <mxGeometry x="259" y="920" width="40" height="20" as="geometry" />
        </mxCell>
        <mxCell id="w8LLy8_TYm7YjtvFCaLv-134" value="Next" style="text;html=1;strokeColor=#3A5431;fillColor=#6d8764;align=center;verticalAlign=middle;whiteSpace=wrap;rounded=0;fontColor=#ffffff;" vertex="1" parent="1">
          <mxGeometry x="299" y="920" width="40" height="20" as="geometry" />
        </mxCell>
        <mxCell id="w8LLy8_TYm7YjtvFCaLv-135" value="Name" style="text;html=1;strokeColor=none;fillColor=none;align=center;verticalAlign=middle;whiteSpace=wrap;rounded=0;" vertex="1" parent="1">
          <mxGeometry x="170" y="640" width="40" height="20" as="geometry" />
        </mxCell>
        <mxCell id="w8LLy8_TYm7YjtvFCaLv-137" value="x" style="whiteSpace=wrap;html=1;aspect=fixed;fillColor=#ffffff;" vertex="1" parent="1">
          <mxGeometry x="460" y="560" width="20" height="20" as="geometry" />
        </mxCell>
        <mxCell id="w8LLy8_TYm7YjtvFCaLv-138" value="x" style="whiteSpace=wrap;html=1;aspect=fixed;fillColor=#ffffff;" vertex="1" parent="1">
          <mxGeometry x="559" y="560" width="20" height="20" as="geometry" />
        </mxCell>
        <mxCell id="w8LLy8_TYm7YjtvFCaLv-141" value="x" style="whiteSpace=wrap;html=1;aspect=fixed;fillColor=#ffffff;" vertex="1" parent="1">
          <mxGeometry x="760" y="560" width="20" height="20" as="geometry" />
        </mxCell>
        <mxCell id="w8LLy8_TYm7YjtvFCaLv-145" value="x" style="whiteSpace=wrap;html=1;aspect=fixed;fillColor=#ffffff;" vertex="1" parent="1">
          <mxGeometry x="560" y="680" width="20" height="20" as="geometry" />
        </mxCell>
        <mxCell id="w8LLy8_TYm7YjtvFCaLv-148" value="x" style="whiteSpace=wrap;html=1;aspect=fixed;fillColor=#ffffff;" vertex="1" parent="1">
          <mxGeometry x="480" y="810" width="20" height="20" as="geometry" />
        </mxCell>
        <mxCell id="w8LLy8_TYm7YjtvFCaLv-154" value="&#xa;&#xa;&lt;span style=&quot;color: rgb(0, 0, 0); font-family: helvetica; font-size: 12px; font-style: normal; font-weight: 400; letter-spacing: normal; text-align: center; text-indent: 0px; text-transform: none; word-spacing: 0px; background-color: rgb(248, 249, 250); display: inline; float: none;&quot;&gt;+&lt;/span&gt;&#xa;&#xa;" style="rounded=0;whiteSpace=wrap;html=1;" vertex="1" parent="1">
          <mxGeometry x="19" y="1070" width="790" height="470" as="geometry" />
        </mxCell>
        <mxCell id="w8LLy8_TYm7YjtvFCaLv-155" value="" style="whiteSpace=wrap;html=1;aspect=fixed;fillColor=#e3c800;strokeColor=#B09500;fontColor=#000000;rounded=1;glass=1;" vertex="1" parent="1">
          <mxGeometry x="266" y="1130" width="278" height="278" as="geometry" />
        </mxCell>
        <mxCell id="w8LLy8_TYm7YjtvFCaLv-156" value="CREATE" style="rounded=1;whiteSpace=wrap;html=1;fillColor=#6d8764;strokeColor=#3A5431;fontColor=#ffffff;glass=1;" vertex="1" parent="1">
          <mxGeometry x="372" y="1460" width="83" height="40" as="geometry" />
        </mxCell>
      </root>
    </mxGraphModel>
  </diagram>
</mxfile>
